<svg id="visual" viewBox="0 0 900 600" width="900" height="600" xmlns="http://www.w3.org/2000/svg" xmlns:xlink="http://www.w3.org/1999/xlink" version="1.1"><path d="M0 97L13.7 98C27.3 99 54.7 101 82 100C109.3 99 136.7 95 163.8 91C191 87 218 83 245.2 75C272.3 67 299.7 55 327 48C354.3 41 381.7 39 409 44C436.3 49 463.7 61 491 61C518.3 61 545.7 49 573 47C600.3 45 627.7 53 654.8 58C682 63 709 65 736.2 66C763.3 67 790.7 67 818 64C845.3 61 872.7 55 886.3 52L900 49L900 0L886.3 0C872.7 0 845.3 0 818 0C790.7 0 763.3 0 736.2 0C709 0 682 0 654.8 0C627.7 0 600.3 0 573 0C545.7 0 518.3 0 491 0C463.7 0 436.3 0 409 0C381.7 0 354.3 0 327 0C299.7 0 272.3 0 245.2 0C218 0 191 0 163.8 0C136.7 0 109.3 0 82 0C54.7 0 27.3 0 13.7 0L0 0Z" fill="#75ff98"></path><path d="M0 199L13.7 198C27.3 197 54.7 195 82 199C109.3 203 136.7 213 163.8 228C191 243 218 263 245.2 268C272.3 273 299.7 263 327 250C354.3 237 381.7 221 409 232C436.3 243 463.7 281 491 279C518.3 277 545.7 235 573 213C600.3 191 627.7 189 654.8 203C682 217 709 247 736.2 254C763.3 261 790.7 245 818 252C845.3 259 872.7 289 886.3 304L900 319L900 47L886.3 50C872.7 53 845.3 59 818 62C790.7 65 763.3 65 736.2 64C709 63 682 61 654.8 56C627.7 51 600.3 43 573 45C545.7 47 518.3 59 491 59C463.7 59 436.3 47 409 42C381.7 37 354.3 39 327 46C299.7 53 272.3 65 245.2 73C218 81 191 85 163.8 89C136.7 93 109.3 97 82 98C54.7 99 27.3 97 13.7 96L0 95Z" fill="#50ff7c"></path><path d="M0 319L13.7 322C27.3 325 54.7 331 82 339C109.3 347 136.7 357 163.8 357C191 357 218 347 245.2 344C272.3 341 299.7 345 327 342C354.3 339 381.7 329 409 335C436.3 341 463.7 363 491 356C518.3 349 545.7 313 573 305C600.3 297 627.7 317 654.8 329C682 341 709 345 736.2 352C763.3 359 790.7 369 818 380C845.3 391 872.7 403 886.3 409L900 415L900 317L886.3 302C872.7 287 845.3 257 818 250C790.7 243 763.3 259 736.2 252C709 245 682 215 654.8 201C627.7 187 600.3 189 573 211C545.7 233 518.3 275 491 277C463.7 279 436.3 241 409 230C381.7 219 354.3 235 327 248C299.7 261 272.3 271 245.2 266C218 261 191 241 163.8 226C136.7 211 109.3 201 82 197C54.7 193 27.3 195 13.7 196L0 197Z" fill="#00ff5a"></path><path d="M0 391L13.7 390C27.3 389 54.7 387 82 392C109.3 397 136.7 409 163.8 415C191 421 218 421 245.2 428C272.3 435 299.7 449 327 444C354.3 439 381.7 415 409 419C436.3 423 463.7 455 491 456C518.3 457 545.7 427 573 414C600.3 401 627.7 405 654.8 417C682 429 709 449 736.2 459C763.3 469 790.7 469 818 474C845.3 479 872.7 489 886.3 494L900 499L900 413L886.3 407C872.7 401 845.3 389 818 378C790.7 367 763.3 357 736.2 350C709 343 682 339 654.8 327C627.7 315 600.3 295 573 303C545.7 311 518.3 347 491 354C463.7 361 436.3 339 409 333C381.7 327 354.3 337 327 340C299.7 343 272.3 339 245.2 342C218 345 191 355 163.8 355C136.7 355 109.3 345 82 337C54.7 329 27.3 323 13.7 320L0 317Z" fill="#00dd4f"></path><path d="M0 601L13.7 601C27.3 601 54.7 601 82 601C109.3 601 136.7 601 163.8 601C191 601 218 601 245.2 601C272.3 601 299.7 601 327 601C354.3 601 381.7 601 409 601C436.3 601 463.7 601 491 601C518.3 601 545.7 601 573 601C600.3 601 627.7 601 654.8 601C682 601 709 601 736.2 601C763.3 601 790.7 601 818 601C845.3 601 872.7 601 886.3 601L900 601L900 497L886.3 492C872.7 487 845.3 477 818 472C790.7 467 763.3 467 736.2 457C709 447 682 427 654.8 415C627.7 403 600.3 399 573 412C545.7 425 518.3 455 491 454C463.7 453 436.3 421 409 417C381.7 413 354.3 437 327 442C299.7 447 272.3 433 245.2 426C218 419 191 419 163.8 413C136.7 407 109.3 395 82 390C54.7 385 27.3 387 13.7 388L0 389Z" fill="#00bb44"></path></svg>